<?xml version="1.0" standalone="no"?>
<!DOCTYPE svg PUBLIC "-//W3C//DTD SVG 20010904//EN"
 "http://www.w3.org/TR/2001/REC-SVG-20010904/DTD/svg10.dtd">
<svg version="1.0" xmlns="http://www.w3.org/2000/svg"
 width="393.000000pt" height="393.000000pt" viewBox="0 0 393.000000 393.000000"
 preserveAspectRatio="xMidYMid meet">
<metadata>
Created by potrace 1.14, written by Peter Selinger 2001-2017
</metadata>
<g transform="translate(0.000000,393.000000) scale(0.100000,-0.100000)"
fill="#000000" stroke="none">
<path d="M1860 3417 c-3 -3 -53 -13 -110 -22 -136 -22 -132 -21 -155 -29 -82
-29 -136 -54 -175 -79 -53 -36 -160 -144 -160 -162 0 -7 -21 -30 -47 -51 -27
-21 -56 -49 -66 -61 -10 -13 -24 -29 -30 -36 -18 -19 -58 -107 -72 -157 -6
-25 -13 -76 -14 -115 -1 -38 -10 -92 -20 -120 -30 -85 -13 -208 40 -285 10
-14 20 -47 23 -75 3 -27 10 -66 15 -85 6 -19 11 -35 11 -36 0 -1 -19 -4 -42
-7 -50 -7 -72 -31 -94 -104 -25 -86 -13 -224 32 -343 39 -103 140 -226 194
-235 37 -6 48 -19 55 -61 11 -73 41 -149 84 -213 38 -55 170 -194 221 -233
l22 -17 -23 -33 c-12 -18 -24 -35 -26 -37 -2 -3 -16 -6 -31 -7 -15 -1 -43 -5
-62 -8 -19 -4 -60 -11 -91 -16 -31 -6 -76 -12 -100 -15 -136 -13 -218 -42
-219 -78 0 -4 26 -19 58 -34 31 -15 60 -32 64 -38 4 -5 8 -7 8 -3 0 7 47 -13
104 -44 24 -13 246 -86 284 -93 229 -44 487 -52 677 -20 55 9 114 19 130 22
17 3 45 11 64 19 18 8 40 14 47 14 46 0 411 167 406 185 -5 20 -89 54 -145 60
-32 4 -68 8 -80 11 -39 7 -140 23 -192 29 -55 7 -95 23 -95 38 0 6 -8 19 -17
30 -17 18 -16 20 22 50 53 43 148 144 201 213 39 53 72 136 90 232 7 32 15 41
46 46 44 7 124 86 167 166 57 108 76 188 76 320 -1 136 -48 207 -132 201 -18
-1 -33 0 -33 2 0 3 9 27 21 54 36 82 47 134 54 243 9 150 8 220 -5 235 -6 8
-16 47 -21 87 -13 91 -65 182 -124 215 -9 5 -17 30 -20 63 -11 105 -36 162
-100 224 -63 61 -156 102 -189 84 -12 -7 -30 -5 -57 6 -22 9 -50 16 -62 16
-38 0 -138 29 -197 57 -39 19 -77 28 -130 31 -41 2 -77 2 -80 -1z"/>
</g>
</svg>
