<svg xmlns="http://www.w3.org/2000/svg" enable-background="new 0 0 32 32" viewBox="0 0 32 32" id="graduation-cap"><path d="M30.52295,10.97168l-14-5.20703c-0.33789-0.125-0.70801-0.125-1.0459,0l-14,5.20703C0.89893,11.1875,0.51123,11.73438,0.5,12.35059c-0.01074,0.61719,0.35693,1.17773,0.92725,1.41406l4.92285,2.03461v6.85211c0,0.56836,0.3208,1.08789,0.8291,1.3418l1,0.5C10.62793,25.7168,13.31396,26.3291,16,26.3291s5.37207-0.6123,7.8208-1.83594l1-0.5c0.5083-0.25391,0.8291-0.77344,0.8291-1.3418v-6.85211l1.81006-0.74811v5.81018c0,0.82813,0.67139,1.5,1.5,1.5s1.5-0.67188,1.5-1.5v-7.05005l0.11279-0.04663c0.57031-0.23633,0.93799-0.79688,0.92725-1.41406C31.48877,11.73438,31.10107,11.1875,30.52295,10.97168z M22.6499,21.72461l-0.1709,0.08496c-4.05664,2.0293-8.90137,2.0293-12.95801,0l-0.1709-0.08496v-4.68549l6.07715,2.51166c0.18311,0.0752,0.37793,0.11328,0.57275,0.11328s0.38965-0.03809,0.57275-0.11328l6.07715-2.51166V21.72461z M16,16.54102l-9.89502-4.08984L16,8.77148l9.89502,3.67969L16,16.54102z"></path></svg>